<svg width="18" height="18" viewBox="0 0 18 18" fill="none" xmlns="http://www.w3.org/2000/svg">
<path d="M14.4938 7.10107C14.4938 7.10107 14.0866 12.1523 13.8503 14.2801C13.7378 15.2963 13.1101 15.8918 12.0818 15.9106C10.1251 15.9458 8.16609 15.9481 6.21009 15.9068C5.22084 15.8866 4.60359 15.2836 4.49334 14.2853C4.25559 12.1388 3.85059 7.10107 3.85059 7.10107" stroke="#3C3A38" stroke-width="1.5" stroke-linecap="round" stroke-linejoin="round"/>
<path d="M15.531 4.67969H2.8125" stroke="#3C3A38" stroke-width="1.5" stroke-linecap="round" stroke-linejoin="round"/>
<path d="M13.0799 4.67974C12.4912 4.67974 11.9842 4.26349 11.8687 3.68674L11.6864 2.77474C11.5739 2.35399 11.1929 2.06299 10.7587 2.06299H7.58395C7.1497 2.06299 6.7687 2.35399 6.6562 2.77474L6.47395 3.68674C6.35845 4.26349 5.85145 4.67974 5.2627 4.67974" stroke="#3C3A38" stroke-width="1.5" stroke-linecap="round" stroke-linejoin="round"/>
</svg>
